HIERARCHY
ROOT SpineBase
{
  OFFSET 0.000000 0.000000 0.000000
  CHANNELS 6 Xposition Yposition Zposition Zrotation Xrotation Yrotation
  JOINT SpineMid
  {
    OFFSET 0.000000 28.116701 0.000000
    CHANNELS 3 Zrotation Xrotation Yrotation
    JOINT SpineShoulder
    {
      OFFSET -0.124549 21.002994 -0.674721
      CHANNELS 3 Zrotation Xrotation Yrotation
      JOINT Neck
      {
        OFFSET -0.067462 6.970892 -0.549594
        CHANNELS 3 Zrotation Xrotation Yrotation
        JOINT Head
        {
          OFFSET 2.609693 11.637263 -0.679280
          CHANNELS 3 Zrotation Xrotation Yrotation
          End Site
          {
            OFFSET 0 0 0
          }
        }
      }
      JOINT ShoulderLeft
      {
        OFFSET -11.692899 -2.977442 -8.922326
        CHANNELS 3 Zrotation Xrotation Yrotation
        JOINT ElbowLeft
        {
          OFFSET -5.467609 -18.809525 -3.446376
          CHANNELS 3 Zrotation Xrotation Yrotation
          JOINT WristLeft
          {
            OFFSET 3.254238 -20.879825 -5.684267
            CHANNELS 3 Zrotation Xrotation Yrotation
            JOINT HandLeft
            {
              OFFSET 2.119732 -6.963654 -0.677808
              CHANNELS 3 Zrotation Xrotation Yrotation
              JOINT HandTipLeft
              {
                OFFSET 1.709041 -5.588402 -0.602716
                CHANNELS 3 Zrotation Xrotation Yrotation
                End Site
                {
                  OFFSET 0 0 0
                }
              }
              JOINT ThumbLeft
              {
                OFFSET -4.012080 -0.199759 -1.107835
                CHANNELS 3 Zrotation Xrotation Yrotation
                End Site
                {
                  OFFSET 0 0 0
                }
              }
            }
          }
        }
      }
      JOINT ShoulderRight
      {
        OFFSET 10.620848 -3.725855 3.935854
        CHANNELS 3 Zrotation Xrotation Yrotation
        JOINT ElbowRight
        {
          OFFSET 1.045554 -21.625361 2.025022
          CHANNELS 3 Zrotation Xrotation Yrotation
          JOINT WristRight
          {
            OFFSET 3.135213 -20.709025 -4.948540
            CHANNELS 3 Zrotation Xrotation Yrotation
            JOINT HandRight
            {
              OFFSET -2.060449 -9.087470 -2.947903
              CHANNELS 3 Zrotation Xrotation Yrotation
              JOINT HandTipRight
              {
                OFFSET -1.174919 -2.820660 -1.030754
                CHANNELS 3 Zrotation Xrotation Yrotation
                End Site
                {
                  OFFSET 0 0 0
                }
              }
              JOINT ThumbRight
              {
                OFFSET 1.952098 1.271735 -0.779619
                CHANNELS 3 Zrotation Xrotation Yrotation
                End Site
                {
                  OFFSET 0 0 0
                }
              }
            }
          }
        }
      }
    }
  }
  JOINT HipLeft
  {
    OFFSET -5.267729 0.986365 -5.371373
    CHANNELS 3 Zrotation Xrotation Yrotation
    JOINT KneeLeft
    {
      OFFSET -7.688294 -26.669127 -7.664679
      CHANNELS 3 Zrotation Xrotation Yrotation
      JOINT AnkleLeft
      {
        OFFSET -7.945111 -31.284393 13.478230
        CHANNELS 3 Zrotation Xrotation Yrotation
        JOINT FootLeft
        {
          OFFSET 6.197487 -7.278432 0.027777
          CHANNELS 3 Zrotation Xrotation Yrotation
          End Site
          {
            OFFSET 0 0 0
          }
        }
      }
    }
  }
  JOINT HipRight
  {
    OFFSET 5.096170 0.422909 -0.946907
    CHANNELS 3 Zrotation Xrotation Yrotation
    JOINT KneeRight
    {
      OFFSET -2.744225 -28.862399 0.841193
      CHANNELS 3 Zrotation Xrotation Yrotation
      JOINT AnkleRight
      {
        OFFSET -11.993911 -32.696529 8.173221
        CHANNELS 3 Zrotation Xrotation Yrotation
        JOINT FootRight
        {
          OFFSET 1.180385 -4.543650 -8.822366
          CHANNELS 3 Zrotation Xrotation Yrotation
          End Site
          {
            OFFSET 0 0 0
          }
        }
      }
    }
  }
}
MOTION
Frames: 10
Frame Time: 0.033333
3.930429 72.417269 371.858438 -3.523722 -0.231756 -5.150095 -0.644125 0.633857 5.039549 -0.109557 0.707432 -0.166640 11.356298 3.753625 -0.482395 0.000000 0.000000 0.000000 -16.498361 64.643176 -3.605510 123.625817 -35.367005 85.215065 -7.100892 -10.682332 4.440862 7.723721 30.002549 -5.573703 0.000000 0.000000 0.000000 0.000000 0.000000 0.000000 26.157024 21.219006 -0.400069 -110.376123 41.327192 52.800492 7.660130 -3.975130 -21.105635 12.633821 -3.198884 -5.369890 0.000000 0.000000 0.000000 0.000000 0.000000 0.000000 10.451985 -12.698640 8.372185 -0.406337 25.321208 -4.761132 2.984064 -16.010443 -1.253842 0.000000 0.000000 0.000000 2.990685 -6.020170 5.687778 9.896228 7.780556 -0.062667 2.431846 5.339188 -19.051545 0.000000 0.000000 0.000000
4.048027 72.480722 371.889069 -3.699148 0.342661 -5.125939 -0.483984 0.705402 5.036876 -0.047693 0.546444 -0.167696 11.161922 3.593285 -0.510919 0.000000 0.000000 0.000000 -15.571512 57.401195 -3.555090 112.322121 -32.735286 69.224003 2.431523 -2.449963 2.606336 -1.802095 33.325418 -3.658119 0.000000 0.000000 0.000000 0.000000 0.000000 0.000000 27.354295 22.575582 -0.602620 -112.252671 39.441669 49.351046 8.528948 -4.720236 -20.161169 10.939298 -4.941173 -5.902172 0.000000 0.000000 0.000000 0.000000 0.000000 0.000000 10.683622 -13.248395 8.453916 -0.577665 25.248750 -4.752725 1.774568 -15.327607 -1.050445 0.000000 0.000000 0.000000 3.498505 -6.740180 5.735472 9.270919 8.082903 -0.202564 0.882675 4.807687 -15.890480 0.000000 0.000000 0.000000
4.189823 72.740730 371.922474 -3.890687 0.916554 -8.266943 -0.476018 0.761803 8.199888 -0.034968 0.426653 -0.175764 11.457451 3.514787 -0.541055 0.000000 0.000000 0.000000 -12.111179 57.769734 -5.980164 89.107643 -15.282543 49.488290 -10.068831 -2.743676 10.331688 -6.762697 54.804273 -1.317249 0.000000 0.000000 0.000000 0.000000 0.000000 0.000000 29.178033 23.469556 -0.757654 -111.542232 40.154408 46.590895 9.176134 -5.783429 -19.943617 8.133783 -8.086347 -6.991234 0.000000 0.000000 0.000000 0.000000 0.000000 0.000000 11.990438 -13.560815 11.859835 -0.992025 25.562786 -4.783325 0.226640 -14.724504 -1.013841 0.000000 0.000000 0.000000 4.269882 -6.654625 8.906213 8.708276 7.750452 -0.168246 -0.079130 6.860087 -12.759291 0.000000 0.000000 0.000000
4.319479 72.831781 371.980340 -4.271778 1.565925 -8.878828 -0.421124 0.787755 8.835053 -0.011685 0.386241 -0.186850 12.533835 2.616212 -0.284568 0.000000 0.000000 0.000000 -12.691326 57.074806 -5.512963 22.116599 29.816838 34.295488 8.097206 -14.453639 22.220194 -29.000500 47.449864 -8.321401 0.000000 0.000000 0.000000 0.000000 0.000000 0.000000 31.150778 23.710742 -0.744450 -115.517864 37.776767 44.375178 6.276084 -7.864196 -21.210076 12.892703 -6.437823 -5.384813 0.000000 0.000000 0.000000 0.000000 0.000000 0.000000 12.724254 -14.071832 12.635061 -1.286781 25.489589 -4.742754 -0.283881 -13.649279 -0.385315 0.000000 0.000000 0.000000 5.013605 -7.260627 9.604071 8.190744 7.952650 -0.277728 -1.426983 6.307620 -9.957105 0.000000 0.000000 0.000000
4.547124 72.854725 372.034649 -4.578690 2.160175 -9.589254 -0.482616 0.732974 9.563173 -0.078994 0.383536 -0.207825 14.089001 1.668532 0.063355 0.000000 0.000000 0.000000 -15.754534 58.755240 -3.630533 -20.087279 27.730821 40.295074 -10.975389 22.660743 20.959145 -16.593693 -6.199520 -28.200860 0.000000 0.000000 0.000000 0.000000 0.000000 0.000000 33.184851 23.998508 -0.730805 -120.649869 35.014344 42.466131 -14.524779 -18.723498 -37.571660 34.665921 15.642542 -2.379110 0.000000 0.000000 0.000000 0.000000 0.000000 0.000000 13.318491 -14.524989 13.526060 -1.589974 25.535164 -4.794053 -1.510680 -12.169042 0.624683 0.000000 0.000000 0.000000 5.411862 -7.864309 10.377362 7.985698 8.182878 -0.401615 -4.965639 1.465010 -4.615855 0.000000 0.000000 0.000000
4.824511 72.777045 372.113499 -4.820504 2.656383 -10.079719 -0.564834 0.719695 10.070897 -0.145948 0.423878 -0.225036 15.606676 0.744983 0.435798 0.000000 0.000000 0.000000 -22.132102 61.938409 0.439681 -30.543614 16.983665 36.057254 -18.591452 19.087148 10.546637 -4.153682 -8.653850 -13.865185 0.000000 0.000000 0.000000 0.000000 0.000000 0.000000 35.086516 23.654531 -0.562491 -125.039774 32.328598 40.587798 -55.440087 -30.830990 -82.812934 47.954634 60.285385 -8.636298 0.000000 0.000000 0.000000 0.000000 0.000000 0.000000 13.773188 -14.794754 14.118022 -2.023519 25.401396 -4.775708 -1.334003 -12.760925 0.181080 0.000000 0.000000 0.000000 5.518487 -8.448887 10.902821 7.991615 8.427896 -0.531598 -7.423731 -2.738807 -0.554026 0.000000 0.000000 0.000000
5.174593 72.682443 372.193497 -4.929520 3.130730 -10.842440 -0.643961 0.680748 10.849903 -0.223477 0.446555 -0.239064 16.684486 -0.259387 0.826962 0.000000 0.000000 0.000000 -33.439669 65.998418 8.385054 -32.128042 8.105456 31.800759 -19.959737 15.996518 4.212822 -1.057039 -4.283962 -5.935879 0.000000 0.000000 0.000000 0.000000 0.000000 0.000000 37.331153 21.878114 -0.087210 -127.480073 30.524341 39.659758 -70.358751 -30.720781 -100.695345 44.275958 76.467899 -5.518220 0.000000 0.000000 0.000000 0.000000 0.000000 0.000000 14.020319 -14.980574 14.985024 -2.069875 25.119342 -4.763735 -0.750495 -13.232381 -0.249205 0.000000 0.000000 0.000000 5.374874 -9.007248 11.671780 8.182857 8.594669 -0.635499 -8.611626 -5.409378 1.723427 0.000000 0.000000 0.000000
5.547581 72.640849 372.220283 -4.926675 3.525236 -11.967787 -0.743604 0.623468 11.985927 -0.317231 0.488680 -0.250396 17.282698 -1.273766 1.194355 0.000000 0.000000 0.000000 -53.885434 68.228631 23.838165 -29.975943 2.320952 30.983763 -19.861378 16.419788 4.316937 6.472059 -10.608061 -0.026548 0.000000 0.000000 0.000000 0.000000 0.000000 0.000000 37.421602 22.737522 -0.112967 -128.331526 29.619491 37.567512 -28.619647 -25.880996 -50.954300 34.326593 31.051227 -0.197019 0.000000 0.000000 0.000000 0.000000 0.000000 0.000000 14.369996 -15.169458 16.256303 -2.223329 25.081345 -4.797383 0.525296 -13.681659 -0.435462 0.000000 0.000000 0.000000 5.164168 -9.497818 12.790445 8.493882 8.715285 -0.705738 -7.557099 -0.750551 1.386898 0.000000 0.000000 0.000000
5.891143 72.641685 372.212699 -4.836462 3.817860 -13.046792 -0.759077 0.502097 13.069497 -0.358047 0.479922 -0.252771 16.893766 -1.337727 1.153404 0.000000 0.000000 0.000000 -70.993261 65.620327 35.811507 -28.921598 3.252026 35.481393 -20.787963 17.736988 3.472312 11.595453 -13.103205 7.103878 0.000000 0.000000 0.000000 0.000000 0.000000 0.000000 36.504045 22.837215 -0.006873 -133.403450 27.195880 38.467012 -22.290706 -27.481764 -49.564738 29.199815 33.664705 3.525185 0.000000 0.000000 0.000000 0.000000 0.000000 0.000000 14.770688 -15.313531 17.460939 -2.412317 25.074553 -4.765391 1.964841 -14.442551 -0.902218 0.000000 0.000000 0.000000 4.860804 -10.115327 13.862217 8.918856 9.122225 -0.859199 -6.203215 -3.671261 -1.661835 0.000000 0.000000 0.000000
6.215193 72.731965 372.182908 -4.690023 4.023061 -14.200531 -0.727185 0.336994 14.222500 -0.377238 0.433634 -0.251268 15.972882 -0.958324 0.920138 0.000000 0.000000 0.000000 -82.619934 61.881389 42.762330 -31.208540 3.331065 38.036939 -9.589876 11.625492 15.315310 8.824922 -13.706187 5.552887 0.000000 0.000000 0.000000 0.000000 0.000000 0.000000 35.217782 22.074142 0.232817 -140.141444 23.876079 41.171571 -12.119597 -32.429420 -48.616259 24.515733 40.094074 6.789934 0.000000 0.000000 0.000000 0.000000 0.000000 0.000000 15.144254 -15.427954 18.749688 -2.582211 25.059914 -4.730565 2.267139 -14.049139 -0.767183 0.000000 0.000000 0.000000 4.502777 -10.255242 14.962800 9.426400 8.902879 -0.795192 -5.117489 -6.733241 -5.066880 0.000000 0.000000 0.000000
